<?xml version="1.0" encoding="utf-8"?>
<!-- Generator: Adobe Illustrator 21.1.0, SVG Export Plug-In . SVG Version: 6.00 Build 0)  -->
<svg version="1.1" id="圖層_1" xmlns="http://www.w3.org/2000/svg" xmlns:xlink="http://www.w3.org/1999/xlink" x="0px" y="0px"
	 viewBox="0 0 70 70" style="enable-background:new 0 0 70 70;" xml:space="preserve">
<style type="text/css">
	.st0{fill:none;}
	.st1{fill-rule:evenodd;clip-rule:evenodd;}
</style>
<rect id="_x3C_切片_x3E_" x="-1" class="st0" width="70" height="70"/>
<path class="st1" d="M35.3,39.2c1-1,1.9-2,2.9-2.9c1.7-1.7,3.3-3.3,5-5c0.4-0.4,0.7-0.4,1-0.1c0.3,0.3,0.3,0.6-0.1,1
	c-2.7,2.7-5.4,5.5-8.2,8.2c-0.4,0.4-0.7,0.4-1.1,0c-2.7-2.7-5.5-5.5-8.2-8.2c-0.3-0.3-0.4-0.8-0.1-1c0.3-0.3,0.6-0.2,1,0.1
	c2.5,2.5,5,5,7.5,7.5C35,39,35.1,39.1,35.3,39.2z"/>
</svg>
