<?xml version="1.0" encoding="utf-8"?>
<!-- Generator: Adobe Illustrator 21.1.0, SVG Export Plug-In . SVG Version: 6.00 Build 0)  -->
<svg version="1.1" id="圖層_1" xmlns="http://www.w3.org/2000/svg" xmlns:xlink="http://www.w3.org/1999/xlink" x="0px" y="0px"
	 viewBox="0 0 300 90" style="enable-background:new 0 0 300 90;" xml:space="preserve">
<style type="text/css">
	.st0{fill-rule:evenodd;clip-rule:evenodd;fill:#FFFFFF;}
	.st1{fill:#FFFFFF;}
</style>
<g>
	<path class="st0" d="M15.8,78.3c0-0.1,0.1-0.1,0.1-0.1c0,0,0,0,0.1-0.1c0.1-0.1,0.2-0.1,0.3-0.2c0,0,0-0.1,0.1-0.1c0,0,0,0,0.1-0.1
		c0,0,0.1,0,0.1,0c0-0.1,0-0.1,0-0.1c0,0,0,0,0.1-0.1c0.2-0.4,0-1.1,0-1.5c0.1-0.3,0.2-0.7,0.4-1c0.4-0.5,0.4-1.2,0.4-1.7
		c0-0.1,0.1-0.2,0.1-0.3c0.5-0.5,0.7-1.8,0.5-2.3c0.2-0.2,0.2-0.2,0.2-0.3c0,0-0.1-0.1-0.1-0.1c-0.3-0.3-0.5-0.3-0.8-0.4
		c-0.1-0.1-0.1-0.1-0.1-0.2c0,0.1,0,0.2-0.1,0.3c0,0,0,0-0.1-0.1c0,0,0-0.1-0.1-0.1c-0.3-0.9-0.1-1.5,0.1-2.2c0.3-0.1,1.1,0,1.5-0.2
		c0.1-0.3,0.2-0.5,0.3-0.8c0.1-0.1,0.1-0.2,0.2-0.3c0,0,0,0,0.1-0.1c0,0,0.1,0,0.1,0c0-0.1,0-0.1,0-0.2c0,0,0,0,0.1-0.1
		c0,0,0.1,0,0.1,0c0-0.2,0.2-0.4,0.4-0.8c0.1-0.9,0.3-1.3,0.6-2.1c0.2-0.6,0.2-1,0.2-1.5c0.3-0.7,0.5-1.4,0.7-2.1c0,0,0-0.1,0.1-0.1
		c0-0.1,0-0.1,0.1-0.2c0,0,0.1,0,0.1,0c0-0.1,0-0.1,0-0.1c0.6-0.4,0.5-1.4,0.6-2c0.4-0.4,0.3-0.8,0.4-1.2c0.4-0.8,0.6-1.4,0.7-2.1
		c0,0,0,0,0.1-0.1c0-0.1,0.1-0.1,0.1-0.2c0,0,0,0,0.1-0.1c0.5-0.5,0.5-1.6,0.6-2.2c0.2-0.2,0.2-0.2,0.3-0.3c0.1-0.1,0.1-0.1,0.1-0.3
		c0.3-1,0.4-1.8,1.2-2.6c0.1-0.5,0.2-0.9,0.3-1.3c0.1-0.1,0.1-0.3,0.2-0.3c0.3-0.4,0.4-0.4,0.5-0.6c0-0.6,0.1-1,0.2-1.5
		c0.3-0.4,0.3-1,0.4-1.4c0,0,0.1,0,0.1,0c0-0.1,0-0.2,0-0.4c-0.2-0.1-0.4-0.1-0.5-0.2c-0.3-0.6-0.5-1-0.4-1.5
		c0.1-0.1,0.2-0.2,0.3-0.3c0.1-0.1,0.3-0.1,0.4-0.1c0.1,0,0.3-0.1,0.4-0.1c0-0.1,0-0.1,0-0.2c0,0,0,0,0.1-0.1c0,0,0-0.1,0.1-0.1
		c0.2-0.1,0.2-0.1,0.3-0.3c0,0,0,0,0.1-0.1c0,0,0-0.1,0.1-0.1c0.4-0.5,0.4-0.5,0.4-0.6c0-0.1,0.1-0.1,0.1-0.2
		c0.1-0.1,0.1-0.2,0.2-0.3c0-0.1,0.1-0.1,0.1-0.1c0.2-0.2,0.4-0.3,0.6-0.5c0.1-0.1,0.2-0.3,0.3-0.4c0.3-0.4,0.3-0.4,0.5-0.8
		c0-0.1,0.1-0.1,0.1-0.2c0,0,0,0,0.1-0.1c0.1-0.3,0.1-0.3,0.1-0.9c0,0,0-0.1,0.1-0.1c0-0.1,0.1-0.2,0.1-0.3c0-0.1,0-0.1,0.1-0.2
		c0.1-0.1,0.1-0.1,0.1-0.4c0-0.1,0-0.1,0.1-0.1c0.2-0.9,0.5-1.6,0.9-2.4c0.1-0.1,0.1-0.3,0.2-0.4c0.1-0.1,0.1-0.2,0.2-0.3
		c0.2-0.4,0.4-0.8,0.6-1.3c0-1.1,0.3-1.8,0.7-2.7c0.6-0.7,0.6-1.3,0.6-2.1c0.5-0.2,0.5-0.5,0.7-1c0.1-0.1,0.1-0.2,0.2-0.3
		c0,0,0-0.1,0.1-0.1c0,0,0,0,0.1-0.1c0.1-0.1,0.1-0.1,0.3-0.4c0.6-1.1,0.6-1.1,0.6-1.3c0.2-0.4,0.4-0.9,0.6-1.3c0,0,0-0.1,0.1-0.1
		c0.1-0.2,0.2-0.5,0.3-0.7c0,0,0,0,0.1-0.1c0-0.1,0-0.1,0-0.2c0-0.1,0-0.1,0.1-0.1c0.1-0.2,0.2-0.4,0.4-0.6c0.3-0.3,0.2-0.7,0.4-1
		c0,0,0,0,0.1-0.1c0-0.1,0.1-0.2,0.1-0.3c0.1-0.1,0.1-0.2,0.2-0.3c0.2-0.2,0.2-0.2,0.3-0.7c0.1-0.2,0.2-0.4,0.3-0.5
		c0.2-0.6,0.5-1.2,0.7-1.8c0,0,0,0,0.1-0.1c0.3-0.8,0.7-1.6,1-2.4c0.1-0.2,0.2-0.3,0.3-0.5c0,0,0,0,0.1-0.1c0,0,0,0,0.1-0.1
		c0,0,0-0.1,0.1-0.1c0.1-0.1,0.1-0.2,0.2-0.3c0,0,0.1,0,0.1,0c0-0.1,0-0.2,0.1-0.3c0,0,0-0.1,0.1-0.1c0.1-0.2,0.2-0.5,0.4-0.7
		c0.1-0.2,0.3-0.4,0.4-0.6c0,0,0,0,0.1-0.1c0.1-0.1,0.4-1.4,0.6-2c0.1-0.1,0.1-0.2,0.2-0.3c0-0.1,0-0.1,0.1-0.1c0,0,0,0,0.1-0.1
		c0.1-0.1,0.1-0.2,0.2-0.3c0,0,0.1,0,0.1,0c0-0.1,0-0.1,0-0.1c0.1-0.1,0.1-0.1,0.2-0.2c0.3-0.2,0.5-1.8,0.5-2.2c0,0,0,0,0.1-0.1
		c0.1-0.1,0.2-0.1,0.3-0.1c0.2,0,0.4-0.1,0.8-0.1c0,0,0,0,0.1,0.1c0.2,0.2,0.2,0.2,0.4,0.4c0,0,0,0.1,0,0.1c0,0,0.1,0,0.1,0
		c0.2,0.4,0.2,0.4,0.3,0.5c0,0.2-0.1,0.3-0.1,0.5c0,0.1-0.1,0.1-0.1,0.2C46.5,6,46.5,6,46.5,6.1c0,0,0,0-0.1,0.1c0,0-0.1,0-0.1,0.1
		c0,0,0,0-0.1,0.1c-0.1,0-0.1,0.1-0.1,0.1c0,0,0,0-0.1,0.1c0,0,0,0-0.1,0.1c-0.1,0.1-0.1,0.1-0.1,0.2c-0.4,0.5-0.4,0.6-0.6,1.3
		c0,0,0,0,0.1,0.1c-0.1,0.1-0.1,0.2-0.2,0.4c0,0-0.1,0-0.1,0.1c-0.2,0.1-0.2,0.1-0.3,0.2c0,0,0,0-0.1,0.1c-0.2,0-0.4,0-0.6,0
		c-0.1,0.4-0.2,0.8-0.3,1.1c0,0,0,0.1-0.1,0.1c0,0-0.1,0-0.1,0c0,0.3,0,0.5,0,0.8c0,0,0.1,0,0.1,0.1c0,0-0.1,0.1-0.1,0.1
		c-0.1,0-0.1,0-0.1,0.1c0,0.3-0.3,0.8-0.5,1.1c-0.1,0-0.2,0-0.2,0c-0.1,0.2-0.3,0.5-0.4,0.8c-0.1,0.1-0.1,0.1-0.2,0.3
		c-0.2,0.2-0.3,0.5-0.5,0.7c0,0.1,0,0.7-0.2,0.8c-0.1,0-0.1,0-0.1,0c0,0,0,0.1,0,0.1c0,0,0,0-0.1,0.1c-0.2,0.2-0.2,0.2-0.3,0.6
		c-0.1,0-0.2,0.1-0.3,0.1c0,0.2,0,0.3,0,0.5c-0.1,0-0.1,0-0.1,0.2c-0.3,0.2-0.2,0.2-0.3,0.6c0,0-0.1,0.1-0.1,0.1
		c0,0.4-0.1,0.8-0.3,1.3c-0.5,0.3-0.5,0.8-0.8,1.3c-0.2,0-0.2,0-0.3,0.1c-0.4,0.9-0.6,1.9-0.9,2.9c0,0-0.1,0-0.1,0.1
		c0,0,0,0-0.1,0.1c-0.1,0-0.1,0.1-0.1,0.1c0,0,0,0-0.1,0.1c-0.1,0-0.2,1-0.4,1.4c-0.2,0.3-0.3,0.3-0.2,0.8c-0.1,0.1-0.1,0.1-0.1,0.2
		c0,0.1-0.1,0.1-0.1,0.2c-0.6,1.1-0.6,1.1-0.7,1.4c-0.2,0.2-0.2,0.2-0.3,0.5c-0.6,0.8-0.7,2.4-0.9,3.6c0,0,0,0-0.1,0.1
		c-0.2,0.1-0.2,0.1-0.2,0.3c-0.2,0.2-0.2,0.2-0.2,0.4c-0.1,0-0.1,0-0.1,0.2c-0.1,0-0.1,0-0.1,0.2c-0.1,0-0.1,0-0.1,0.2
		c-0.6,0.6-0.7,1.5,0,2.2c0,0,0,0,0.1,0.1c0,0,0,0,0.1,0.1c0,0,0,0,0.1,0.1c0.1,0.1,0.1,0.2,0.2,0.3c0.1,0.2,0.1,0.2,0.3,0.3
		c0.2,0.4,0.1,0.4,0.7,0.7c0,0,0.1,0.1,0.1,0.1c0,0,0,0,0.1,0.1c0,0,0,0,0.1,0.1c0,0,0,0,0.1,0.1c0.2,0.7,0.2,0.7,0.4,1.1
		c0,0.1,0,0.1,0,0.2c0,0,0,0,0.1,0.1c0.3,0.7,0.3,0.7,0.4,0.7c0,0,0,0.1,0.1,0.2c0.3,0.8,0.3,2.1,1,2.9c0,0,0,0.1,0.1,0.1
		c0,0,0,0,0.1,0.1c0,0,0.1,0.1,0.1,0.1c0,0,0,0.1,0,0.1c0,0,0.1,0,0.1,0c0,0,0,0,0.1,0.1c0.1,0,0.2,0,0.3,0.4c0,0,0,0,0.1,0.1
		c0.1,0.8,0.4,2.5,0,3.4c0,0,0,0-0.1,0.1c0,0.1-0.1,0.1-0.1,0.2c0,0-0.1,0-0.1,0.1c0,0.5-0.1,1-0.2,1.5c-0.1,0-0.1,0-0.1,0.3
		c-0.1,0.3-0.3,0.6-0.4,0.8c-0.3,0.4-0.3,0.9-0.4,1.4c-0.2,0.1-0.4,0.3-0.5,0.5c-0.1,0-0.1,0-0.1,0.2c-0.3,0.3-0.2,0.3-0.3,0.6
		c-0.1,0.1-0.1,0.1-0.4,0.7c0,0,0,0.1-0.1,0.2c-0.1,0-0.1,0-0.1,0.2c-0.1,0-0.1,0.1-0.1,0.1c0,0,0,0-0.1,0.1
		c-0.4,0.1-0.4,0.1-0.8,0.1c0.2-0.9,0.7-1.7,0.9-2.5c0-0.6,0-0.6-0.3-3.4c0-2.4,0.1-4.7-0.4-6.9c-0.1-0.1-0.1-0.2-0.1-0.2
		c0-0.1,0-0.1,0-0.1c0,0,0,0,0-0.1c-0.1-0.2-0.2-0.3-0.4-0.5c-0.2-1.1-0.2-1.1-0.4-2.2c0,0,0,0,0.1-0.1c0,0,0,0,0.1-0.1
		c0.1-0.1,0.1-0.3,0.1-0.4c0,0-0.1-0.1-0.1-0.1c0,0,0,0-0.1-0.1c-0.1-0.2-0.1-0.2-0.3-0.2c0,0-0.1,0-0.1-0.1c0.1-0.3,0.1-0.3,0-0.3
		c0,0,0,0-0.1-0.1c-0.2-0.3-1,0-1.1,0c0,0.1,0,0.2,0,0.3c0.1,0,0.2,0,0.3,0.1c-0.1,0.1-0.2,0.1-0.3,0.2c0,0-0.1,0-0.1,0.1
		c0,0-0.1,0-0.1,0c0,2.7,0,2.7-0.1,3.7c-0.1,0.1-0.1,0.1-0.1,0.3c-0.1,0-0.1,0-0.1,0.2c-0.1,0-0.1,0-0.1,0.2
		c-0.3,0.5-0.2,0.6-0.1,1.3c0,0,0.1,0,0.1,0c0,0.2,0,0.2,0.4,0.5c0,0.2,0,0.2,0.2,0.3c0.1,0.3,0.1,0.3,0.2,0.4c0,0.3,0,0.6,0.1,0.9
		c-0.5,0-1,0.1-1.3-0.1c0-0.2,0-0.2-0.3-0.5c0,0,0,0-0.1-0.1c0,0,0,0-0.1-0.1c0-0.1-0.1-0.1-0.1-0.1c0,0,0,0-0.1,0c0,0,0,0-0.1,0.1
		c-0.1,0-0.1,0-0.1,0c0,0,0,0.1,0,0.1c0,0,0,0-0.1,0.1c0,0-0.1,0-0.1,0.1c-0.2,0.1-0.2,0.1-0.2,0.2c0,0-0.1,0.1-0.1,0.1
		c0,0-0.1,0.1-0.1,0.1c0,0,0,0-0.1,0.1c-0.2,0.1-0.2,0.1-0.2,0.2c-0.2,0.2-0.2,0.2-0.3,0.5c-0.2,0.1-0.2,0.3-0.3,0.6
		c-0.2,0.2-0.2,0.2-0.2,0.4c-0.2,0.2-0.2,0.2-0.2,0.4c0,0,0,0-0.1,0.1c-0.2,0.1-0.2,0.1-0.2,0.3c-0.2,0.2-0.3,0.6-0.4,1
		c-0.2,0.1-0.2,0.1-0.2,0.3c-0.2,0.1-0.2,0.1-0.2,0.3c0,0,0,0-0.1,0.1c-0.2,0.2-0.2,0.2-0.3,0.4C27,48.8,27,48.8,27,48.9
		c0,0,0,0-0.1,0.1c-0.1,0.9-0.6,1.7-0.7,2.6c-0.1,0.1-0.1,0.1-0.1,0.3c-0.3,0.6-0.4,1.3-0.5,2c-0.8,0.3-0.6,0.4-0.6,1.5
		c-0.2,0.1-0.2,0.1-0.2,0.3c-0.1,0-0.1,0-0.1,0c0,0,0,0.1,0,0.1c0,0,0,0-0.1,0.1C24.5,56,24.5,56,24.4,56c0,0,0,0-0.1,0.1
		c-0.1,0-0.1,0.1-0.2,0.1c0,0.7,0,1,0,2.5c-0.2,0-0.3,0.1-0.5,0.2c-0.1,0-0.1,0-0.2,0.2c-0.1,0.1-0.1,0.2-0.2,0.3c0,0,0,0-0.1,0.1
		c0,0-0.1,0-0.1,0c0,0.5,0,1.1-0.2,1.8c-0.1,0-0.1,0-0.2,0.1c-0.1,0.3-0.2,0.6-0.2,0.9c0,0-0.1,0.1-0.1,0.1c0,0.1-0.1,0.1-0.1,0.2
		c-0.2,0.3-0.2,0.3-0.4,0.6c-0.7,0.7,0,2.4,0.2,3.5c0.2,0.1,0.4,0.1,0.6,0.2c0.1,0.2,0.1,0.4,0.2,0.6c0,0-0.1,0-0.1,0.1
		c0,0.1,0,0.1-0.1,0.2c-0.2,0.2-0.2,0.2-0.3,0.3c-0.1,0-0.1,0-0.1,0.1c-0.1,0.1-0.1,0.1-0.2,0.2c0,0,0,0-0.1,0.1c0,0-0.1,0-0.1,0.1
		c-0.3,0.2-0.3,0.2-0.5,0.4c-0.1,0-0.1,0-0.1,0c0,0,0.1,0.8,0.4,0.9c0,0.1,0.1,0.1,0.1,0.2c0.4-0.1,0.4-0.1,0.6-0.4c0,0,0,0,0.1-0.1
		c0,0,0,0,0.1-0.1c0.6-0.5,0.6-0.5,0.6-0.6c0.1-0.1,0.1-0.2,0.2-0.3c0.1-0.1,0.1-0.1,0.3-0.4c0,0,0-0.1,0.1-0.1c0,0,0.1,0,0.1,0
		c0-0.1,0-0.1,0-0.2c0-0.1,0.1-0.1,0.1-0.1c0,0,0-0.1,0.1-0.1c0,0,0,0,0.1-0.1c0-0.1,0.1-0.1,0.1-0.1c0.6,0,1-0.1,0.6,0.8
		c-0.1,0-0.1,0-0.1,0c0,0,0,0-0.1,0.1c-0.3,0.1-0.5,0.2-0.8,0.4c0,0,0,0.1,0,0.2c-0.1,0-0.1,0-0.2,0c0,0,0,0.1,0,0.2
		c0,0-0.1,0-0.1,0c0,0.2,0,0.3,0,0.4c-0.3,0.1-0.3,0.1-0.6,0.4c0,0,0,0-0.1,0.1c0,0,0,0-0.1,0.1c-0.2,0.1-0.2,0.1-0.2,0.2
		c0,0-0.1,0-0.1,0.1c-0.3,0.1-0.2,0.9-0.2,1.3c-0.7-0.1-0.7-0.1-1.2-0.3c0,0.1,0,0.2,0,0.3c-0.3,0-0.6,0-0.9-0.1
		c0-0.1,0-0.1-0.1-0.2c-0.2,0-0.2,0-0.2,0.1c-0.9,0-0.7,0.8-0.7,1.5c-0.2,0-0.2,0-0.3,0.2c0,0,0,0-0.1,0.1c-0.2,0.2-0.1,0-0.2,0.4
		c-0.5,0.9-0.6,2.4-0.9,3.6c-0.1,0-0.1,0-0.1,0.2c0,0-0.1,0.1-0.1,0.1c-0.1,0-0.1,0-0.2,0.1c0.2,0.6-0.5,2.6,0.4,3.2
		c0,0.1,0,0.1,0.1,0.2c0,0.1,0.1,0.2,0.1,0.3c0,0.1,0,0.3,0.1,0.5c-0.4,0.1-0.4,0.1-0.4,0.1c-0.1,0-0.1,0-0.1,0c0,0,0,0.1,0,0.2
		c-0.3,0.1,0.1,0.8,0.1,1.3c-0.1,0.2-0.2,0.3-0.2,0.5c0,0,0,0-0.1,0.1c-0.5,0.3-3.2-0.1-3.3-0.5C14.7,81.7,15.7,80,15.8,78.3z"/>
	<path class="st0" d="M23.4,65.4c0.2-0.1,0.2-0.1,0.4-0.1c0,0.2,0,0.3,0,0.5c-0.5,0.3-0.5,0.3-0.7,0.4
		C23.2,65.8,23.2,65.7,23.4,65.4z"/>
	<path class="st0" d="M25.6,66.1c-0.2-0.6,0.6-0.9,1-1c0.1-0.4,0.3-0.3,0.7-0.3c0,0.2,0.1,0.4,0.2,0.6C27,66,26.2,66,25.6,66.1z"/>
	<path class="st0" d="M24.6,63.8c0.1-0.1,0.1-0.1,0.2-0.2c0.1-0.1,0.2-0.2,0.3-0.3c0,0,0,0,0-0.1c0.2-0.2,0.4-0.3,0.6-0.5
		c0-0.1,0.1-0.1,0.1-0.2c0,0,0,0,0.1-0.1c0,0,0-0.1,0.1-0.1c0,0,0.1,0,0.1,0c0,0,0-0.1,0-0.1c0,0,0-0.1,0.1-0.1c0,0,0,0,0.1-0.1
		c0,0,0,0,0.1-0.1c0,0,0.1-0.1,0.1-0.1c0,0,0,0,0.1-0.1c0.1-0.1,0.2-0.2,0.3-0.3c0,0,0-0.1,0.1-0.1c0,0,0,0,0.1-0.1
		c0.1-0.1,0.1-0.2,0.2-0.3c0-0.1,0.1-0.1,0.1-0.2c0.1-0.1,0.1-0.2,0.2-0.3c0-0.1,0.1-0.2,0.1-0.3c0,0,0,0,0.1-0.1
		c0-0.1,0-0.1,0.1-0.2c0-0.1,0.1-0.1,0.1-0.2c0-0.1,0.1-0.1,0.1-0.1c0,0,0,0,0.1-0.1c0.4-0.4,0.4-0.4,0.6-0.6c0.1,0,0.2-0.1,0.3-0.1
		c0-0.1,0-0.1,0-0.1c0-0.1,0.1-0.1,0.1-0.2c0.1-0.1,0.1-0.1,0.4-0.5c0-0.1,0.1-0.1,0.1-0.2c0.1-0.1,0.2-0.3,0.3-0.4
		c0-0.1,0-0.1,0.1-0.1c0.1-0.1,0.1-0.2,0.2-0.3c0.1-0.1,0.1-0.2,0.2-0.2c0-0.1,0-0.1,0.1-0.1c0.1-0.1,0.1-0.1,0.2-0.2
		c0-0.1,0-0.1,0.1-0.1c0,0,0,0,0.1-0.1c0,0,0,0,0.1-0.1c0,0,0-0.1,0.1-0.1c0,0,0,0,0.1-0.1c0.3-0.4,0.7-0.7,1-1.1
		c0.1-0.1,0.1-0.1,0.2-0.2c0.2-0.1,0.4-0.3,0.5-0.4c0.2,0,0.5-0.1,0.7-0.1c0,0,0-0.1,0.1-0.1c0.2,0,0.4-0.1,0.6-0.2
		c0.1,0,0.2,0,0.3-0.1c0,0,0,0,0.1-0.1c0.6-0.3,1.2-0.5,1.9-0.7c0,0,0,0,0.1-0.1c0.2-0.1,0.5-0.2,0.8-0.2c0,0,0,0,0.1-0.1
		c0.4-0.1,0.8-0.3,1.2-0.4c0,0,0-0.1,0.1-0.1c0.6-0.3,0.6-0.3,1.2-0.6c0,0,0.1-0.1,0.2-0.1c0,0-0.1-0.1-0.1-0.1c0,0,0-0.1-0.1-0.1
		c-0.1,0-0.1-0.1-0.1-0.1c-0.1-0.3-0.1-0.3-0.2-0.4c0-0.1-0.1-0.1-0.1-0.2c0-0.1,0-0.1,0-0.2c-0.1,0-0.1,0-0.1,0
		c-0.4-0.4-0.6-0.2-0.8-0.5c0-0.3-0.1-0.6-0.1-0.9c0-0.1,0.1-0.1,0.1-0.1c0.2-0.1,0.3-0.1,0.8-0.1c0,0,0,0,0.1,0.1c0,0,0,0.1,0,0.1
		c0.7,0,1.5,0.1,2.4,0.2c0,0,0.1,0,0.1,0.1c0.9-0.1,0.9-0.1,1.4-0.1c0,0,0,0,0.1,0.1c0.2,0.1,0.5,0.1,0.8,0.2c0,0,0,0,0.1,0.1
		c0.3,0.1,0.7,0.3,1,0.4c0.2,0.1,0.3,0.2,0.5,0.3c0.1,0.1,0.1,0.1,1.7,0.3c0,0,0,0,0.1,0.1c0,0,0,0.1,0,0.1c0,0,0.1,0,0.1,0
		c0,0,0,0,0.1,0.1c0,0,0,0.1,0,0.1c0.1,0,0.2,0,0.3,0c0,0,0,0,0.1,0c0.3,0,0.3,0,0.5,0.2c0,0,0,0,0.1,0.1c0.1,0.1,0.2,0.1,0.4,0.2
		c0,0,0,0,0.1,0.1c0,0,0,0,0.1,0.1c0,0,0,0,0.1,0.1c0,0,0,0.1,0,0.1c0,0,0.1,0,0.1,0c0,0,0,0,0.1,0.1c0,0,0,0,0.1,0.1
		c0.1,0.1,0.1,0.1,0.3,0.2c0.1,0,0.1,0,0.1,0.1c0,0.1,0.4,0.1,0.4,0c0.5-0.3,1.3-0.2,2-0.2c0,0,0,0,0.1,0.1c0.1,0,0.2,0,0.4,0
		c0,0,0.1,0,0.1,0.1c1.5,0.2,3.1,0.3,4.7,0.4c0,0,0.1,0,0.1,0.1c0.1,0.1,0.1,0.1,0.2,0.2c0,0.1,0.1,0.2,0.1,0.3c-0.2,0-0.3,0-0.5,0
		c-0.5,0-0.9,0-1.4,0c-3.7-0.3-3.7-0.3-4.4-0.2c-0.1,0.4-0.3,0.7,0.1,1.2c0,0.1,0.1,0.2,0.1,0.4c0,0,0.1,0,0.1,0
		c0.1,0.2,0.1,0.2,0.1,0.2c0,0,0.1,0.1,0.1,0.1c0,0,0,0,0.1,0.1c0.2,0.2,0.2,0.2,0.4,0.3c0,0.2,0.2,0.3,0.5,0.6c0,0,0,0,0.1,0.1
		c0,0,0,0,0.1,0.1c0,0,0,0.1,0.1,0.1c0.3,0.5,0.3,0.5,0.4,0.6c0,0,0,0,0.1,0.1c0,0,0.1,0.1,0.1,0.2c0.2,0.2,0.2,0.2,0.5,0.4
		c0,0,0,0.1,0.1,0.1c0,0,0,0,0.1,0c0.1,0.1,0.2,0.1,0.3,0.2c0,0,0,0,0.1,0.1c0.1,0.1,0.1,0.1,0.3,0.2c0,0,0,0,0.1,0.1
		c0,0,0,0,0.1,0.1c0.1,0.1,0.1,0.1,0.3,0.2c0,0,0,0,0.1,0.1c0.4,0.4,0.7,0.7,1.1,1.1c0.1,0.1,0.2,0.2,0.3,0.4
		c0.1,0.2,0.1,0.2,0.3,0.3c0.1,0.1,0.2,0.1,0.3,0.2c0,0,0.1,0,0.1,0.1c0.1,0.1,0.2,0.1,0.3,0.2c0,0.1,0,0.1,0.2,0.1c0,0,0,0,0.1,0.1
		c0.1,0.1,0.1,0.1,0.2,0.2c0.2,0.6,0.2,0.6,0.3,0.6c0,0,0,0,0.1,0.1c0.1,0.2,0.1,0.2,0.3,0.3c0,0,0,0,0.1,0.1c0,0.2,0,0.3,0,0.5
		c-0.8,0-0.8,0-1-0.2c0,0,0,0-0.1-0.1c0,0-0.1-0.1-0.1-0.1c0,0,0,0-0.1-0.1c0,0,0,0-0.1-0.1c-0.1-0.1-0.1-0.1-0.3-0.1
		c0,0,0,0-0.1-0.1c0,0,0-0.1-0.1-0.1c0,0-0.1,0-0.1-0.1c0,0,0,0-0.1-0.1c-0.1-0.2-0.1-0.2-0.3-0.3c-1.2-1.3-1.2-1.3-1.3-1.3
		c0,0,0,0-0.1-0.1c0-0.1,0-0.1,0-0.1c-0.1,0-0.1,0-0.1,0c-0.1-0.2-0.1-0.2-0.3-0.2c0,0-0.1,0-0.1-0.1c-0.4-0.4-0.4-0.4-0.5-0.4
		c-0.1-0.2-0.1-0.2-0.3-0.2c-0.1-0.2-0.1-0.2-0.3-0.2c-0.1-0.1-0.1-0.1-0.2-0.1C54,59,54,58.9,53.9,58.9c-1.4-0.8-2.8-1.2-4-1.8
		c-1.7-1.1-3.3-1.6-5-2.2c-1.7-0.1-1.7-0.1-2.6-0.3c-2.1,0.2-4.5,0.3-6.8,0.6c-0.4,0.1-3.1,0.9-3.1,1.1c-0.2,0.1-0.2,0.1-0.2,0.1
		c0,0,0,0-0.1,0.1c0,0-0.1,0.1-0.1,0.1c-0.3,0.2-0.5,0.3-0.5,0.7c-0.1,0-0.1,0-0.1,0.2c0,0,0,0-0.1,0.1c0,0-0.1,0-0.1,0.1
		c0,0,0,0.1-0.1,0.1c-0.1,0-0.1,0.1-0.1,0.1c-0.5,0.2-0.5,0.2-0.7,0.6c0,0,0,0-0.1,0.1c0,0-0.1,0-0.1,0.1c-0.2,0.1-0.2,0.2-0.3,0.4
		c0,0-0.1,0-0.1,0.1c-0.3,0.5-0.3,0.5-0.5,0.7c-0.1,0-0.1,0.1-0.1,0.1c0,0,0,0-0.1,0.1c-0.1,0-0.1,0-0.1,0c0,0,0,0.1,0,0.1
		c-0.3,0.2-0.3,0.2-0.4,0.4c0,0,0,0,0,0.1c0,0,0,0-0.1,0.1c-0.2,0.2-0.4,0.4-0.6,0.5c-0.4,0.3-0.6,0.5-0.7,1c-0.1,0-0.1,0-0.6,0.8
		c0,0,0,0-0.1,0.1c0,0-0.1,0-0.1,0.1c0,0-0.1,0-0.1,0c0,0,0,0.1,0,0.1c-0.1,0-0.1,0-0.1,0c0,0,0,0.1,0,0.1c-0.4,0.1-0.4,0.1-0.5,0.5
		c-0.1,0-0.1,0-0.1,0c0,0.1,0,0.1-0.1,0.2c0,0-0.1,0-0.1,0c0,0,0,0-0.1,0.1c0,0,0,0-0.1,0.1c-0.4,0.1-0.8,0.3-1.2,0.5
		C24.3,64.4,24.5,64.1,24.6,63.8z"/>
	<path class="st0" d="M40,47.7c0.1-0.2,0.2-0.3,0.3-0.4c0,0,0-0.1,0.1-0.1c0-0.1,0-0.1,0.1-0.1c0,0,0,0,0.1-0.1c0,0,0.1,0,0.1-0.1
		c0,0,0-0.1,0.1-0.1c0.4,0,0.8,0,1.2-0.1c0,0,0,0,0.1-0.1c0.6-0.3,0.6-0.3,1.4-0.7c0,0,0.1-0.1,0.1-0.1c0,0,0.1-0.1,0.1-0.1
		c0.1-0.1,0.3-0.3,0.5-0.4c0,0,0,0,0.1-0.1c0.7,0,1.2-0.2,1.9-0.7c0.1-0.1,0.1-0.1,0.2-0.1c0.1-0.1,0.3-0.2,0.4-0.3
		c0.1-0.1,0.3-0.1,0.4-0.1c0,0,0,0,0.1-0.1c0.1,0,0.2-0.1,0.4-0.1c0,0,0,0,0.1-0.1c0.4-0.1,0.4-0.1,0.4-0.1c0.1-0.1,0.3-0.2,0.4-0.3
		c0.7-0.1,1.7,0,2.4-0.4c1.5-0.3,4.1-0.4,5.8-0.1c0,0,0.1,0,0.1,0.1c0.7,0.1,1.4,0.2,2.1,0.4c0,0,0,0,0.1,0.1c0.4,0,0.7,0.1,1.1,0.2
		c0,0,0,0,0.1,0.1c0.5,0.2,1.1,0.3,1.6,0.4c0,0,0,0,0.1,0.1c0,0,0.1,0,0.1,0c0,0,0,0,0.1,0.1c0.3,0.1,0.6,0.1,1,0.2
		c0,0.1,0,0.1,0.1,0.1c0.2,0.3,1.1,0.3,1.6,0.4c0,0,0,0,0.1,0.1c0,0.1,0,0.1,1.5,0.5c0,0,0,0,0.1,0.1c0,0,0.1,0,0.1,0.1
		c0.1,0.3,0.1,0.3,0.1,0.6c-0.6,0-1.2,0-1.8,0c0,0,0,0.1,0,0.2c-1-0.1-1-0.1-3.3-0.2c0-0.1,0-0.1,0-0.1c-0.1,0-0.1,0-0.1,0
		c-0.6-0.4-1.2-0.4-1.7-0.6c0,0.1,0,0.2,0,0.3c-0.8,0-1.4-0.1-2.1,0.2c0,0,0,0.1,0,0.1c-0.1,0-0.2,0.1-0.3,0.1c0-0.1,0-0.1,0-0.1
		c-0.6-0.1-1,0-1.5,0c0,0.1,0,0.2,0,0.3c-0.5,0.1-0.5,0.1-1.1,0c-0.1,0.1-0.2,0.2-0.2,0.3c-1-0.3-2,0-2.8,0c-0.1,0-0.2,0.1-0.3,0.1
		c0,0,0,0-0.1,0.1c-0.6,0.1-1.2,0.2-1.9,0.3c0,0-0.1,0-0.1,0.1c-0.1,0-0.2,0-0.3,0c0,0,0,0.1-0.1,0.1c-0.6,0-1.8-0.2-2.2,0.1
		c-0.3,0.2-0.3,0.2-0.6,0.2c0,0-0.1,0-0.1,0.1c-0.7,0-0.8,0-1.2,0.4c0,0,0,0-0.1,0.1c-0.6,0-1.3-0.1-1.7,0.2c-1,0-1.9,0-2.9-0.1
		C40.1,48.1,40.1,47.9,40,47.7z"/>
	<path class="st0" d="M48.5,29.4c0-0.1,0.1-0.1,0.1-0.2c0-0.1,0-0.1,0.1-0.1c0.2-0.2,0.3-0.3,0.5-0.5c0.1-0.1,0.1-0.1,0.2-0.2
		c0.2-0.1,0.2-0.1,0.3-0.3c0,0,0,0,0.1-0.1c0,0,0.1,0,0.1,0c0-0.1,0-0.1,0-0.1c0.1-0.1,0.1-0.1,0.4-0.7c0.2-0.1,0.4-0.3,0.6-0.4
		c0.1,0,0.1-0.1,0.2-0.1c0.1-0.1,0.1-0.1,0.2-0.1c0.1-0.1,0.1-0.1,0.2-0.1c0.1-0.1,0.1-0.1,0.2-0.1c0.1-0.1,0.1-0.1,0.2-0.1
		c0.1-0.1,0.2-0.2,0.3-0.2c0.1-0.1,0.2-0.1,0.3-0.2c0.1-0.1,0.2-0.2,0.3-0.2c0,0,0,0,0.1-0.1c0.1-0.1,0.2-0.1,0.3-0.2
		c0,0,0-0.1,0.1-0.1c0.1-0.1,0.2-0.2,0.3-0.3c0.1-0.1,0.2-0.2,0.4-0.3c0,0,0-0.1,0.1-0.1c0.1-0.1,0.2-0.1,0.3-0.2c0,0,0,0,0.1-0.1
		c0.1,0,0.1,0,0.2,0c0.4,0.4,0.2,0.3,0.1,0.9c-0.1,0-0.1,0-0.1,0c0,0,0,0,0-0.1c0,0,0-0.1,0-0.1c-0.1,0-0.1,0-0.2,0c0,0,0,0,0,0.1
		c-0.1,0-0.1,0.1-0.1,0.1c0,0-0.1,0-0.1,0c0,0-0.1,0-0.1,0.1c0,0.1,0,0.1,0,0.2c0.1,0,0.2,0,0.2,0c-0.1,0.2-0.2,0.4-0.2,0.7
		c0,0,0,0-0.1,0.1c0,0,0,0-0.1,0.1c-0.1,0-0.1,0-0.1,0.1c0,0,0,0-0.1,0.1c-0.3,0-0.3,0.2-0.3,0.3c-0.2,0.1-0.2,0.1-0.3,0.2
		c0,0-0.1,0-0.1,0c0,0,0,0-0.1,0.1c-0.1,0.1-0.1,0.1-0.2,0.2c-0.1,0-0.1,0-0.2,0.1c0,0.1,0,0.1,0,0.2c0,0,0,0,0.1,0.1
		c0,0,0,0.1,0,0.1c0,0-0.1,0-0.1,0.1c0,0,0,0,0,0.1c0,0,0,0-0.1,0.1c0,0,0,0.1-0.1,0.1c0,0-0.1,0-0.1,0.1c0,0,0,0-0.1,0.1
		c-0.1,0-0.2,0-0.3,0c0,0.1,0.1,0.3,0.1,0.4c0,0,0,0-0.1,0.1c0,0,0,0-0.1,0.1c0,0-0.1,0-0.1,0.1c-0.1,0.1-0.1,0.1-0.2,0.3
		c-0.1,0-0.1,0-0.1,0.1c-0.1,0-0.2,0-0.2,0c-0.1,0.1-0.1,0.3-0.2,0.4c-0.2,0.2-0.2,0.2-0.4,0.5c0,0.2-0.1,0.3-0.1,0.5
		c0,0-0.1,0-0.1,0.1c0,0.3-0.1,0.5-0.1,0.8c-0.1,0-0.1,0-0.2,0c0,0.1,0,0.2,0,0.4c-0.1,0.1-0.1,0.1-0.2,0.2c0,0,0,0-0.1,0.1
		c0,0.1-0.1,0.1-0.1,0.2c0,0,0,0-0.1,0.1c-0.1,0-0.1,0-0.1,0.1c0,0.1,0,0.1-0.1,0.2c-0.1,0-0.1,0-0.3,0.8c0,0.1-0.1,0.1-0.1,0.2
		c0,0-0.1,0-0.1,0.1c-0.1,0-0.1,0-0.1,0.1c0,0-0.1,0-0.1,0c-0.1-0.1-0.1-0.1-0.1-0.2c-0.1,0.1-0.1,0.1-0.1,0.3c-0.1,0-0.1,0-0.2,0
		c-0.1,0.6-0.1,0.6-0.4,1.1c-0.1,0.1-0.1,0.2-0.2,0.4c0,0,0,0.1-0.1,0.1c0,0-0.1,0-0.1,0.1c-0.2,0.1-0.2,0.1-0.3,0.4
		c0,0,0,0-0.1,0.1c-0.1,0.2-0.1,0.3-0.1,0.5c0,0,0,0.1-0.1,0.1c0,0.1,0,0.3,0,0.4c-0.1,0.1-0.3,0.1-0.4,0.2c0,0,0,0-0.1,0.1
		c-0.3,0.1-0.3,0.1-0.3,0.2c0,0-0.1,0-0.1,0c0,0,0,0.1,0,0.1c-0.2,0.1-0.2,0.1-0.3,0.3c0,0,0,0.1,0.1,0.1c-0.1,0.2-0.2,0.4-0.3,0.7
		c0,0,0,0-0.1,0.1c-0.1,0-0.1,0-0.1,0.1c0,0.1,0,0.1-0.1,0.2c-0.1,0.1-0.1,0.1-0.1,0.2c-0.2,0.2-0.2,0.2-0.2,0.4
		C45,40.2,45,40.2,45,40.4c0,0-0.1,0-0.1,0.1c0,0-0.1,0.1-0.1,0.1c0,0.1-0.1,0.2-0.1,0.4c-0.1,0.1-0.1,0.3-0.2,0.4c0,0,0,0,0,0.1
		c-0.1,0.1-0.2,0.3-0.3,0.4c0,0.1,0,0.1-0.1,0.2c-0.2,0.1-0.2,0.1-0.3,0.6c0,0,0,0-0.1,0.1c0,0.1-0.1,0.3-0.1,0.5c0,0,0,0-0.1,0.1
		c0,0,0,0,0,0.1c0,0,0,0-0.1,0.1c0,0-0.1,0-0.1,0.1c0,0,0,0-0.1,0.1c-0.1,0-0.1,0-0.1,0c-0.3,0.6-0.6,1.3-0.9,2
		c-0.1,0-0.3,0-0.4,0.1c0-0.2,0-0.4,0-0.6c0.7-1.6,1.3-3.2,2-4.8c0.7-2.7,1.7-5,2.8-7.5C48.1,30.2,48.1,30.2,48.5,29.4z"/>
	<path class="st0" d="M43.2,44.5c0-0.1,0.1-0.1,0.1-0.1c0,0,0,0,0.1-0.1c0-0.1,0.1-0.1,0.1-0.2c0.1-0.1,0.2-0.3,0.3-0.4
		c0.2-0.2,0.4-0.4,0.6-0.6c0,0,0.1,0,0.1,0c0-0.1,0-0.1,0-0.1c0.1-0.1,0.2-0.1,0.3-0.2c0.2-0.1,0.5-0.3,0.7-0.4
		c0.3-0.3,0.4-0.6,0.5-0.9c0.1,0,0.1-0.1,0.2-0.1c0-0.1,0-0.1,0-0.1c0,0,0,0,0.1-0.1c0-0.1,0.1-0.1,0.1-0.1c0.1-0.1,0.1-0.1,0.2-0.2
		c0,0,0,0,0.1-0.1c0.1-0.2,0.2-0.3,0.3-0.5c0,0,0,0,0.1-0.1c0-0.1,0-0.1,0.1-0.2c0.1-0.1,0.2-0.3,0.3-0.4c0,0,0,0,0.1-0.1
		c0,0,0,0,0.1,0c0,0,0-0.1,0.1-0.1c0.1-0.1,0.1-0.1,0.2-0.2c0,0,0.1-0.1,0.1-0.1c0,0,0-0.1,0.1-0.1c0,0,0,0,0.1-0.1
		c0.1-0.1,0.1-0.2,0.2-0.3c0.1-0.1,0.1-0.1,0.2-0.2c0,0,0-0.1,0.1-0.1c0,0,0,0,0-0.1c0.1-0.1,0.1-0.2,0.2-0.3
		c0.4-0.2,0.5-0.4,0.8-0.7c0.1-0.1,0.3-0.2,0.4-0.3c0.1-0.1,0.1-0.1,0.2-0.2c0,0,0,0,0.1-0.1c0,0,0-0.1,0.1-0.1
		c0.2-0.2,0.3-0.3,0.5-0.5c0,0,0,0,0.1-0.1c0,0,0-0.1,0.1-0.1c0,0,0,0,0.1-0.1c0-0.1,0.1-0.1,0.1-0.1c0,0,0,0,0.1-0.1
		c0-0.1,0.1-0.1,0.1-0.1c0,0,0,0,0.1-0.1c0.1-0.1,0.1-0.2,0.2-0.3c0.3-0.3,0.2-0.3,0.8-0.5c0-0.1,0-0.1,0-0.1
		c0.2-0.2,0.4-0.3,0.6-0.5c0,0,0.1,0,0.1-0.1c0.3,0,0.2-0.1,0.7,0.3c-0.1,0.1-0.1,0.3-0.2,0.4c-0.1,0-0.2,0-0.3,0
		c-0.1,0.1-0.3,0.3-0.5,0.3c0,0,0,0.1,0,0.1c-0.1,0-0.2,0.1-0.2,0.1c0,0.1,0,0.1,0,0.2c0,0,0.1,0,0.1,0c-0.3,0.1-0.4,0.2-0.5,0.4
		c-0.3,0.1-0.2,0.2-0.2,0.6c-0.1,0-0.1,0-0.1,0.1c-0.1,0.1-0.2,0.2-0.3,0.3c-0.2,0.1-0.2,0.1-0.3,0.2c0,0,0,0-0.1,0.1
		c0,0-0.1,0-0.1,0.1c0,0,0,0-0.1,0.1c0,0,0,0-0.1,0.1C51,37.3,51,37.3,51,37.4c0,0,0,0-0.1,0.1c0,0-0.1,0-0.1,0.1
		c-0.2,0.1-0.2,0.2-0.3,0.4c-0.1,0-0.1,0-0.1,0c0,0,0,0.1,0,0.1c0,0,0,0-0.1,0.1c0,0-0.1,0-0.1,0.1c0,0,0,0-0.1,0.1c0,0,0,0-0.1,0.1
		c-0.1,0-0.3,0-0.4,0c-0.1,0.3-0.2,0.5-0.3,0.8c0,0,0,0-0.1,0.1c-0.2,0.2-0.2,0.2-0.6,0.3c0,0,0,0-0.1,0.1c-0.1,0.2-0.3,0.3-0.4,0.5
		c-0.2,0.2-0.2,0.2-0.2,0.3c-0.1,0-0.1,0-0.1,0c0,0.1,0,0.1-0.1,0.2c-0.6,0.3-0.6,0.3-0.6,0.4c0,0,0,0-0.1,0.1c0,0-0.1,0-0.1,0.1
		c0,0,0,0-0.1,0.1c0,0,0,0-0.1,0.1c0,0-0.1,0-0.1,0.1c-0.2,0.2-0.3,0.3-0.4,0.7c-0.1,0-0.1,0-0.1,0.2c-0.1,0-0.1,0-0.1,0.2
		c-0.2,0.2-0.5,0.3-0.7,0.5c-0.1,0-0.1,0-0.2-0.1c-0.1,0.2-0.1,0.2-0.1,0.4c-0.2,0.1-0.2,0.1-0.2,0.2c-0.2,0.1-0.2,0.1-0.2,0.2
		c-0.2,0.1-0.2,0.1-0.2,0.2c0,0,0,0-0.1,0.1c-0.3,0.2-0.4,0.4-0.7,0.8c-0.3,0.1-0.3,0.1-0.8,0c0-0.1,0-0.2,0-0.3
		C43.1,44.6,43.1,44.5,43.2,44.5z"/>
</g>
<g>
	<path class="st0" d="M105,65.2c-3.8-0.8-6.2-4.5-6.8-5.7c-0.9-0.5-1.7-0.9-2.4-1.3c0-2,0.4-2.6,1.2-3.6c1.2,0,1.5-0.3,4.2,0.8
		c1.2,1,6.3,5.6,7.4,8.9c-0.2,0.2-0.3,0.3-0.3,0.6C107.1,64.9,106,65.1,105,65.2z"/>
	<path class="st0" d="M75.9,64.9c-1.2-0.3-1-1.8-1-2c3.8-3.8,10.2-5.9,14.9-9.6c1.4-2.3,0.8-4.5,0.9-5.9c0.6-0.4,1.2-0.9,1.8-1.2
		c-3.2,0-5.7,2.3-8,3.5c-0.8,0.1-1.5,0.4-2.1,0.8c0,0.2,0,0.3,0,0.6c0.1,0,0.3,0,0.6,0.1c-0.5,0.4-0.8,1.1-1.1,1.7
		c-1.8,0.9-5-0.2-5-0.2c-1.2-3.3-1.8-2.7-0.1-5.3c4.7-2.4,9.5-4.8,14.3-7.1c0.8-0.4,1.7-0.8,2.6-1.1c0.1-2.7,0.4-5.4,0.7-8.1
		c1.1-3.2,2.4-6,5.1-6.9c1.4,1.5,1.2,4.4,0.8,7.1c-0.3,0.4-0.4,0.9-0.6,1.4c-0.2,0.9-0.2,1.8-0.2,2.9c-0.3,0-0.4,0.2-0.6,0.3
		c0,1.7,0.2,2.6,2.6,4.2c0.2,0.3,0.3,0.7,0.6,1.2c-1.3,0.9-8.9,5.4-7.5,8.3c-0.6,0.9-1,0.8-1,2.4c-0.3,0-0.5,0-0.6,0
		c-1.8,2.6-3.9,5.4-6,7.5c-3,1.7-5.9,3.5-8.7,5.3C77.4,64.8,76.7,64.8,75.9,64.9z"/>
	<path class="st0" d="M131.6,64.9c-0.8-0.9-1.3-1.6-2-2.4c-0.4-0.6-0.9-1.1-1.4-1.5c0-3.5,0-5.4,0.5-7.7c-2.4,0-3.5,2.3-4.8,3.8
		c-2,1.2-3.9,1.4-5.4,1.4c0-2.4-0.3-3.8,2.1-4.2c1.4-1.3,3.9-3.5,4.7-5c0.4-0.5,0.9-0.9,1.3-1.4c0.4-0.3,1.1-0.6,1.7-0.9
		c-4.7,0-10.2,2.8-14.3,2.1c0-0.8,0.1-1.5,0.3-2.3c0.3,0,0.6,0,0.9,0c-0.2-0.3-0.2-0.5-0.2-0.6c0.6-0.6,1.4-1.2,2.1-1.7
		c5.1-1.5,10.2-3,15.5-4.5c0.8-0.8,0.8-1.5,0.9-2.3c0.2,0,0.3,0,0.5,0c0-0.1,0-0.3,0-0.4c-0.5-0.1-0.8-0.3-1.1-0.3
		c-2.4,0.4-4.8,0.9-7.2,1.4c-0.6-0.4-1.2-0.9-1.8-1.4c-0.2-0.4-0.2-0.9-0.2-1.2c2.9-2,6.2-2.7,9.8-4.1c0,0,0.2,0.2,0.3,0.3
		c0.6-0.3,1.4-0.6,2.1-0.8c1,0.2,2.1,0.3,3.2,0.4c0.8,1.5,0.8,1.7,1.2,4.5c-0.3,0.2-0.6,0.5-0.8,0.8c0.6,0.9,1.2,1.8,1.9,2.7
		c-0.7,0.6-1.5,1.2-2.1,2c0,0.1,0,0.3,0.1,0.4c-1.5,1.1-3,2.3-4.5,3.5c0,0.6,0.2,2,1,3.5c5.9,3.2,12.7-1.2,20,1.6
		c0.1,0.5,0.3,0.9,0.6,1.4c-1.2,0-1.3,1.2-1.5,2.1c-2.3,0.2-4.5,0.5-6.6,0.8c-3.5,0-6.9,0-10.4,0c-3.3-1.2-3.9-1.7-5.4-0.8
		c-0.2,2.7-0.8,6.3-0.2,9.9C132.2,64.3,131.9,64.6,131.6,64.9z"/>
	<path class="st0" d="M173.8,61.2c-3.6,0-3-3.5-3-4.2c1.8-0.5,3.6-0.9,5.6-1.2c4.2-2.1,4.1-4.1,3.8-8.3c0.3-0.8,0.6-1.5,0.9-2.1
		c-1.8,0.2-3.6,0.3-5.3,0.6c-2.4-1.2-4.8-0.4-6.2,0c0,1.4-0.6,5.9-1.8,7.5c-0.4,0-0.9,0-1.2,0c-0.6-1.1-1-2.1-1.5-3
		c-0.9-0.9-0.8-1.4-0.9-2.3c-0.3-0.1-0.5-0.3-0.6-0.3c-2.6,0-3.9,0.3-4.5-0.6c-0.1-1.1-0.3-2.1-0.3-3c0.8-4.1,1.1-5.1,5.3-5.1
		c0.8,0.8,0.8,2.4,1.1,3.9c2.9-0.3,6.2-4.5,9.5-0.2c0.3-0.3,0.6-0.6,1-0.9c0.8-2.1,2-6.6,5.4-4.4c-0.1,0.8-0.1,1.5-0.1,2.4
		c0,0,0.1,0.1,0.3,0.3c3.5-0.8,7.1-1.8,10.7-1.8c-1.7,2.1-3.8,3.5-6.3,4.5c0,3.8,1.2,10.4-0.8,14.9
		C182.7,60.1,176.1,60.7,173.8,61.2z"/>
	<path class="st0" d="M230.7,57.7c-0.6-0.3-1.1-0.6-1.5-0.8c-0.1-0.8-0.3-1.5-0.4-2.3c0-1.5,0.4-2.4,1-3.8c0.9-0.2,1.8-0.3,2.9-0.4
		c0.3-0.8,0.6-1.4,1.1-2c-1.4-0.5-2.7-0.9-3.9-1.4c-2.9-5.9,2.7-6.5,6.6-7.8c2.3,0,2.7-0.6,4.7,2.7c-0.2,1.5-0.3,3.2-0.3,4.8
		c-0.9,0.1-1.6,0.4-2.4,0.8c0.2,0.4,0.3,0.9,0.6,1.5c1.5,0.3,1.7-0.2,2.9,2.4c0,1,0,2.3,0,3.5c-1.4,0-1.1,0.8-1.8,1.2
		C236.4,57.2,233,56.8,230.7,57.7z"/>
	<path class="st0" d="M283.3,39.6c0.2-0.6,0.3-1.2,0.4-1.6c-0.6-0.3-1-0.6-1.5-0.9c-3.3-0.6-2.6-0.4-2.7-3c-0.4-0.9-0.9-1.7-1.4-2.4
		c-1.8,0.3-2-0.2-2.9,0.8c-0.3,1.5-1.4,9.2-4.5,9.2c-4.7,1.8-7.5,5.9-11.9,8c0.6-2.6,1.1-3.9,1.1-5.6c-1.6-1.7-1.8-2.7-2.1-3.5
		c-0.4,0-0.9,0-1.4,0.1c-0.1,1.1-0.3,2.1-0.3,3.3c-2.1,1.2-3.9,2-5.3,4.1c1.4-0.1,2.7-0.1,4.1-0.1c0.1,0.1,0.3,0.4,0.5,0.8
		c-1.7,1.6-1.4,5.4-1.2,8.3c0.8,0.8,3-2.7,5.1-3.5c3-4.4,7.4-9,13.5-9c0.6,0.6,1.4,1.2,2.1,1.8c-0.5,1.7-2.7,3.5-4.5,5.3
		c0,0.1,0,0.3,0,0.6c-0.6,0.1-1.1,0.3-1.5,0.6c-2,1.4-3.9,2.7-5.7,4.2c-3.5,3.5-9.9,4.5-11.4,7.7c0,0.9,0,1.8,0,2.9
		c0.9-0.5,1.8-0.9,2.9-1.2c1.5-1.8,5.3-3.6,6.9-5.6c3-2,5.4-6.2,9.8-6.2c-0.2,0.3-0.3,0.8-0.5,1.2c0.1,0,0.3,0.1,0.5,0.3
		c0,0.5,0.1,1.1,0.3,1.7c0.3,0.2,0.6,0.3,0.9,0.5c-0.1,0.1-0.3,0.3-0.4,0.5c0,0.3,0.1,0.6,0.3,1.1c1.5,0.1,3,0.4,4.7,0.7
		c1.6-1.7,4.8-7.2,5.4-8.6c0.4-5-0.2-5.1-3-6.5c-0.8-0.1-1.7-0.1-2.3-0.8C277.2,41,281,40.8,283.3,39.6z M278,46.9
		c0.2,0.1,0.4,0.3,0.8,0.4c0,1.4,0,2.9,0,4.4c-0.8,1.4-2.4,3.8-4.1,4.8c-0.5,0-0.8,0-1.1,0.1c-1.2-2.4-0.3-4.5,0-5.4
		c0.2-0.1,0.3-0.1,0.5-0.1c0.6-1.4,1.4-2.7,2.1-4.1C276.8,46.9,277.4,46.9,278,46.9z"/>
	<path class="st0" d="M222.3,46.1c0-0.1,0-0.3,0-0.5c-0.6-0.3-1.1-0.6-1.5-0.7c-0.8,0.7-0.6,1.8-0.6,3.9c-0.9,0-1.7,0.1-2.4,0.3
		c-2.3-3.5,0.9-9.3-0.3-10.5c-2,0-2.6,1-4.2,1c-1.1-2.1,0.3-3.2,0.4-4.5c-4.1,0-4.4,2.6-6.8,3.8c-0.2-0.2-0.3-0.3-0.5-0.5
		c0-5,9.2-5.3,9.2-8c-2.4-0.6-3.3,0.6-5.4,0.6c0-3.2,2.1-4.7,3.6-6.2c-3.2-1.5-5.4,7.2-8.1,8.1c-0.5-0.2-0.9-0.3-1.2-0.5
		c-0.3-1.8-0.6-3.5-0.9-5.1c-2.7-1.4-0.5,5.1-1.5,7.2c-1.3,0.5-2.5,1-3.8,1.7c-0.2,0.6-0.3,1.2-0.5,2c1.4-0.3,2.9-0.6,4.4-0.9
		c-0.5,0.6-0.8,1.2-1.1,2c-2.6,1.8-4.5,1.1-4.5,4.8c0.9,0.1,1.8,0.3,2.9,0.5c0,0.2,0,0.3,0,0.5c-2,0.9-2.9,0.5-2.9,3.3
		c0.5,0,0.9,0,1.5,0c1.2,0.5,2,2,4.5,1.1c0-1.5,0-2.9,0.2-4.2c0.6-0.2,1.2-0.3,1.9-0.3c0.3,0.4,0.6,1,1.1,1.6
		c-0.3,0.3-0.3,0.6,0.6,2.3c-0.3,1-0.6,2.1-0.9,3.2c-2.7,2-2.1,2.9-2.1,6.8c0.1,0,0.3,0,0.5,0c0.1,0.5,0.3,0.9,0.6,1.4
		c0.6-0.3,1.2-0.6,2-0.9c0.1,0.2,0.3,0.3,0.5,0.5c-0.3,0.1-0.6,0.3-0.8,0.6c-0.2,1.4-1.8,3.8-1.8,6c1.4,0,2.8,0,4.4,0
		c2.7-0.9,2.1-1.1,5.3,1.2c0.8-0.1,1.5-0.3,2.3-0.3c-0.3-1-0.5-2-0.6-2.9c-2.7-5-3.5-3.2-1.1-7.1c-0.5-2.4-0.8-2.1-1.7-3.5
		c0.2-0.4,0.3-0.9,0.5-1.2c-0.8-0.6-1.4-1.2-2-1.8c0.3-0.9,0.6-1.6,1-2.4c-0.6-0.6-1.2-1.1-1.6-1.5c0-0.8,0-1.5,0.1-2.3
		c1.1-1.7,2.1-3.8,4.4-3.8c0,0.2-0.9,0.9-0.1,1.7c0,1.1-0.6,3,0.1,5.6c-0.1,0-0.3,0-0.4,0.1c0.1,0.8,0.4,1.6,1.2,1.6
		c0.3,0.5,0.6,0.9,0.9,1.5c1.6,1.1,5.9,0.5,8.1-1.8C224.1,48.3,223.2,47.2,222.3,46.1z M203.5,41.9c0-0.2,0-0.4,0-0.6
		c0.6-0.4,1.2-0.6,2-0.8C204.7,40.9,204.1,41.3,203.5,41.9z M208.9,40.1c0,0.6,0,1.2,0,1.8c-0.8,0.3-1.4,0.6-2,1
		C206.9,40.5,207.7,40.7,208.9,40.1z M206.8,58.8c-0.1-0.2-0.2-0.4-0.3-0.8c0.6,0,1.1,0,1.7,0c0,0,0,0.6,0,1.2
		c-0.5-0.3-0.8-0.3-1-0.3C206.9,59,207,59.4,206.8,58.8z M208.4,63.7c-0.9-0.9-0.3-1.8-0.3-1.8c0.2,0,0.3,0,0.6,0c0-0.3,0-0.5,0-0.6
		c0.6-0.3,1.2-0.6,2-0.9c0,0.9,0,2,0.2,3C209.9,63.4,209.2,63.6,208.4,63.7z"/>
</g>
<g>
	<path class="st1" d="M76.6,75.5c0-0.8,0-3.5-0.1-3.9c-0.1-1.3-0.4-1.3-1.4-1.3h-0.7c-0.1,0-0.2,0-0.2-0.2v-0.5c0-0.1,0-0.2,0.2-0.2
		c0.4,0,1.3,0.1,2.9,0.1c0.7,0,2-0.1,2.8-0.1c1.7,0,3.1,0.2,3.9,0.6c1.2,0.7,1.7,1.7,1.7,3c0,2.2-1,2.7-2.7,3.6l0.1,0
		c2.1,0.7,3.6,2,3.6,4.3c0,1.1-0.7,2.7-1.7,3.3c-0.9,0.6-2.2,0.8-4.2,0.8c-1.5,0-2.4-0.1-3.3-0.1c-1.1,0-2.4,0.1-2.8,0.1
		c-0.3,0-0.3,0-0.3-0.1v-0.6c0-0.1,0-0.2,0.2-0.2h1.1c0.7,0,0.8-0.3,0.9-1c0.1-0.5,0.1-3.4,0.1-5.2V75.5z M78.6,76.3
		c0.4,0,0.8,0,1.2,0c1.3,0,2.2-0.2,2.8-0.6c0.9-0.7,1.2-1.7,1.2-2.6c0-0.8-0.3-1.7-1.1-2.3c-0.8-0.6-1.9-0.7-3-0.7
		c-0.3,0-0.6,0-0.7,0c-0.2,0-0.3,0.2-0.3,0.4c0,0.4,0,2.4,0,4.2V76.3z M78.6,78.4v3c0,2,0.5,2.9,2.3,2.9c1.8,0,3.5-0.9,3.5-3.5
		c0-1.8-0.9-2.9-2.2-3.5c-0.9-0.4-1.9-0.4-2.9-0.4h-0.7V78.4z"/>
	<path class="st1" d="M95.5,82.4c0,1.3,0.3,1.6,0.7,1.6c0.4,0,0.7-0.2,0.8-0.3c0.1-0.1,0.1-0.1,0.2-0.1l0.2,0.2
		c0.1,0.1,0.1,0.2,0,0.4c-0.2,0.3-0.6,1.1-1.7,1.1c-0.8,0-1.4-0.6-1.6-1.5h0c-0.5,0.5-1.2,1-2.2,1.3c-0.4,0.1-0.8,0.1-1.3,0.1
		c-0.5,0-1.3-0.4-1.3-1.8c0-1,0.5-1.9,2.2-2.7c1-0.4,2.1-1,2.5-1.3v-1.4c0-0.4-0.1-1-0.3-1.2c-0.2-0.3-0.7-0.5-1.3-0.5
		c-0.4,0-1.1,0.2-1.4,0.5c-0.3,0.3-0.1,0.6-0.1,1c0,0.8-0.3,1.2-1.2,1.2c-0.4,0-0.5-0.2-0.5-0.7c0-0.7,0.6-1.5,1.5-2.1
		c0.9-0.6,1.7-0.8,2.7-0.8c1,0,1.5,0.3,1.8,0.6c0.5,0.5,0.5,1,0.5,1.5v3.4V82.4z M93.9,80.2c-0.8,0.6-2.9,1-2.9,2.9
		c0,0.8,0.5,1.2,1.1,1.2c0.6,0,1.8-0.8,1.8-1.4V80.2z"/>
	<path class="st1" d="M105.8,79.4c0-1.6-0.3-2.1-0.7-2.4c-0.3-0.3-0.9-0.4-1.4-0.4c-0.6,0-1.5,0.3-2.1,1.3c-0.3,0.4-0.3,0.9-0.3,1.5
		v4.3c0,0.4,0.1,0.6,0.4,0.6h0.8c0.2,0,0.2,0,0.2,0.2v0.4c0,0.2,0,0.2-0.2,0.2c-0.2,0-0.8-0.1-2-0.1c-1.2,0-1.9,0.1-2.1,0.1
		c-0.1,0-0.2,0-0.2-0.2v-0.4c0-0.2,0-0.2,0.3-0.2h0.7c0.2,0,0.3-0.1,0.3-0.6c0-0.4,0-0.8,0-1.1v-3.9c0-0.5-0.1-0.8-0.6-1.1l-0.5-0.2
		c-0.1-0.1-0.2-0.1-0.2-0.2V77c0-0.1,0.1-0.2,0.1-0.2l1.9-1c0.2-0.1,0.3-0.1,0.4-0.1c0.1,0,0.2,0.2,0.2,0.3l0.1,1.3h0.1
		c0.7-0.9,2-1.7,3.2-1.7c1.1,0,2,0.7,2.5,1.7h0.1c0.7-0.9,1.9-1.7,3.2-1.7c0.8,0,1.5,0.1,2,0.7c0.5,0.5,1.1,1,1.1,2.7v4.9
		c0,0.3,0.2,0.4,0.5,0.4h0.6c0.2,0,0.2,0,0.2,0.2v0.4c0,0.2,0,0.2-0.2,0.2c-0.2,0-0.8-0.1-1.8-0.1c-1.1,0-1.9,0.1-2,0.1
		c-0.1,0-0.2-0.1-0.2-0.2v-0.4c0-0.2,0-0.2,0.3-0.2h0.5c0.2,0,0.4-0.1,0.4-0.4c0-0.5,0-1.3,0-1.8v-3.2c0-0.7-0.1-1.4-0.6-1.8
		c-0.4-0.3-1-0.5-1.6-0.5c-0.7,0-1.6,0.5-1.9,1.1c-0.3,0.6-0.3,1.2-0.3,2.2v3.8c0,0.3,0.1,0.5,0.4,0.5h0.8c0.2,0,0.2,0,0.2,0.2v0.4
		c0,0.2,0,0.2-0.2,0.2c-0.2,0-0.7-0.1-2-0.1c-1.2,0-1.9,0.1-2.1,0.1c-0.1,0-0.2-0.1-0.2-0.2v-0.4c0-0.2,0-0.2,0.2-0.2h0.6
		c0.4,0,0.5-0.1,0.5-0.4V79.4z"/>
	<path class="st1" d="M116.9,73.2c0-1.5-0.2-1.8-1-2l-0.2-0.1c-0.2-0.1-0.3-0.1-0.3-0.2v-0.2c0-0.1,0-0.1,0.2-0.2
		c0.6-0.3,1.8-0.8,2.3-1.2c0.2-0.1,0.3-0.2,0.5-0.2c0.2,0,0.2,0.1,0.2,0.4c0,0.2,0,2.7,0,4.6v2.5c0.7-0.7,2-1.1,3-1.1
		c1.9,0,4,1.6,4,4.7c0,2.6-2.1,5-4.6,5c-1.2,0-2.1-0.2-2.6-0.6l-0.9,0.5c-0.1,0.1-0.1,0.1-0.3,0.1l-0.3-0.1c-0.1,0-0.1-0.1-0.1-0.2
		c0-0.3,0-2.1,0-3.7V73.2z M118.5,80.3c0,1.8,0.1,2.5,0.3,3.2c0.2,0.5,1.1,1.1,2.1,1.1c1.3,0,3-0.9,3-3.8c0-2.1-1.1-4.2-3.3-4.2
		c-0.8,0-1.6,0.3-2.1,0.8V80.3z"/>
	<path class="st1" d="M128.4,83.8c-1-1.2-1.2-2-1.2-3.6c0-1.1,0.6-2.5,1.9-3.5c1.1-0.9,2.2-1.1,3-1.1c1.2,0,2.4,0.6,3.1,1.3
		c1,1,1.5,2.2,1.5,3.6c0,2.4-2.2,4.8-4.9,4.8C130.7,85.3,129.3,84.9,128.4,83.8z M134.7,80.3c0-2.4-1.8-4-2.9-4
		c-0.6,0-1.2,0.1-1.7,0.7c-0.9,0.9-1.2,1.8-1.2,3.5c0,1.2,0.1,2.1,0.8,3.1c0.5,0.7,1.1,1.2,2.2,1.2
		C133.7,84.7,134.7,82.6,134.7,80.3z"/>
	<path class="st1" d="M139.4,83.8c-1-1.2-1.2-2-1.2-3.6c0-1.1,0.6-2.5,1.9-3.5c1.1-0.9,2.2-1.1,2.9-1.1c1.2,0,2.4,0.6,3.1,1.3
		c1,1,1.5,2.2,1.5,3.6c0,2.4-2.2,4.8-4.9,4.8C141.6,85.3,140.3,84.9,139.4,83.8z M145.7,80.3c0-2.4-1.8-4-2.9-4
		c-0.6,0-1.2,0.1-1.7,0.7c-0.9,0.9-1.2,1.8-1.2,3.5c0,1.2,0.1,2.1,0.8,3.1c0.5,0.7,1.1,1.2,2.2,1.2
		C144.6,84.7,145.7,82.6,145.7,80.3z"/>
	<path class="st1" d="M152,78.5c0,1.1,0,4.5,0,5.1c0,0.4,0.1,0.7,0.6,0.7h1c0.2,0,0.2,0.1,0.2,0.2v0.4c0,0.1,0,0.2-0.1,0.2
		c-0.2,0-1.1-0.1-2.5-0.1c-1.4,0-2.3,0.1-2.5,0.1c-0.1,0-0.2-0.1-0.2-0.2v-0.4c0-0.2,0-0.2,0.3-0.2h1.1c0.2,0,0.5-0.2,0.5-0.6
		c0-0.7,0-4.5,0-5.7v-1.4c0-1.6,0-3.6-0.1-4.1c0-0.8-0.4-1.1-1.1-1.3l-0.4-0.2c-0.1,0-0.1-0.1-0.1-0.1v-0.2c0-0.1,0.1-0.1,0.2-0.2
		c0.8-0.3,1.8-0.8,2.6-1.3c0.2-0.1,0.3-0.2,0.5-0.2c0.2,0,0.2,0.1,0.2,0.4c0,1.2-0.1,5.8-0.1,7V78.5z"/>
	<path class="st1" d="M161.4,82.4c0,1.3,0.3,1.6,0.7,1.6c0.3,0,0.7-0.2,0.8-0.3c0.1-0.1,0.1-0.1,0.2-0.1l0.2,0.2
		c0.1,0.1,0.1,0.2,0,0.4c-0.2,0.3-0.6,1.1-1.7,1.1c-0.8,0-1.4-0.6-1.6-1.5h0c-0.5,0.5-1.2,1-2.2,1.3c-0.4,0.1-0.8,0.1-1.3,0.1
		c-0.5,0-1.3-0.4-1.3-1.8c0-1,0.5-1.9,2.2-2.7c1-0.4,2.1-1,2.5-1.3v-1.4c0-0.4-0.1-1-0.3-1.2c-0.2-0.3-0.7-0.5-1.3-0.5
		c-0.4,0-1.1,0.2-1.4,0.5c-0.3,0.3-0.1,0.6-0.1,1c0,0.8-0.3,1.2-1.2,1.2c-0.4,0-0.5-0.2-0.5-0.7c0-0.7,0.6-1.5,1.5-2.1
		c0.9-0.6,1.7-0.8,2.7-0.8c1,0,1.5,0.3,1.8,0.6c0.5,0.5,0.5,1,0.5,1.5v3.4V82.4z M159.8,80.2c-0.8,0.6-3,1-3,2.9
		c0,0.8,0.5,1.2,1.2,1.2c0.6,0,1.8-0.8,1.8-1.4V80.2z"/>
	<path class="st1" d="M174.5,70.3H174c-0.7,0-2.6,0-3.5,0.3c-1,0.3-1.7,1.9-2,2.6c0,0.1-0.1,0.1-0.2,0.1l-0.4-0.1
		c-0.1,0-0.1,0-0.1-0.2c0.2-0.8,1-3.6,1-3.9c0-0.3,0.1-0.4,0.2-0.4c0.1,0,0.2,0,0.3,0.1l0.3,0.2c0.4,0.3,0.6,0.4,1.3,0.4
		c1.2,0,2.1,0.1,4.2,0.1h1.1c2.4,0,3.3-0.1,4.4-0.1c0.5,0,0.8-0.1,1.1-0.3l0.4-0.3c0.1-0.1,0.2-0.1,0.3-0.1c0.1,0,0.1,0.1,0.2,0.4
		c0,0.3,0.5,3,0.6,4c0,0.1,0,0.2-0.1,0.2l-0.4,0.1c-0.1,0-0.1,0-0.2-0.1c-0.2-0.4-0.8-2.1-1.6-2.5c-0.7-0.3-2.7-0.4-3.8-0.4h-0.6
		v6.3c0,0.3,0,6.5,0,6.8c0,0.5,0.2,0.9,0.7,0.9h1.4c0.2,0,0.2,0.1,0.2,0.2v0.5c0,0.1,0,0.2-0.2,0.2c-0.2,0-0.9-0.1-3.1-0.1
		c-2.1,0-3,0.1-3.3,0.1c-0.2,0-0.2-0.1-0.2-0.2v-0.4c0-0.2,0-0.2,0.2-0.2h1.5c0.4,0,0.7-0.3,0.7-0.5c0.1-0.6,0.1-7.4,0.1-7.8V70.3z"
		/>
	<path class="st1" d="M189,82.4c0,1.3,0.3,1.6,0.7,1.6c0.4,0,0.7-0.2,0.8-0.3c0.1-0.1,0.1-0.1,0.2-0.1l0.2,0.2
		c0.1,0.1,0.1,0.2,0,0.4c-0.2,0.3-0.6,1.1-1.7,1.1c-0.8,0-1.4-0.6-1.6-1.5h0c-0.5,0.5-1.2,1-2.2,1.3c-0.4,0.1-0.8,0.1-1.3,0.1
		c-0.5,0-1.3-0.4-1.3-1.8c0-1,0.5-1.9,2.2-2.7c1-0.4,2.1-1,2.5-1.3v-1.4c0-0.4-0.1-1-0.3-1.2c-0.2-0.3-0.7-0.5-1.3-0.5
		c-0.4,0-1.1,0.2-1.4,0.5c-0.3,0.3-0.1,0.6-0.1,1c0,0.8-0.3,1.2-1.2,1.2c-0.4,0-0.5-0.2-0.5-0.7c0-0.7,0.6-1.5,1.5-2.1
		c0.9-0.6,1.7-0.8,2.7-0.8c1,0,1.5,0.3,1.8,0.6c0.5,0.5,0.5,1,0.5,1.5v3.4V82.4z M187.4,80.2c-0.8,0.6-3,1-3,2.9
		c0,0.8,0.5,1.2,1.1,1.2c0.6,0,1.8-0.8,1.8-1.4V80.2z"/>
	<path class="st1" d="M193.2,78.6c0-0.7-0.1-1.1-1.2-1.3c-0.2,0-0.2-0.1-0.2-0.2V77c0-0.1,0-0.1,0.2-0.1c0.7-0.3,1.5-0.6,2.4-1.1
		c0.2-0.1,0.3-0.1,0.4-0.1c0.1,0,0.1,0.1,0.1,0.3c0,0.4,0,1.8,0,3.6v2.4c0,0.9,0,1.6,0,1.9c0,0.4,0.1,0.6,0.3,0.6h1
		c0.2,0,0.2,0.1,0.2,0.2v0.4c0,0.2,0,0.2-0.2,0.2c-0.2,0-1.2-0.1-2.1-0.1c-1.3,0-2.1,0.1-2.4,0.1c-0.1,0-0.2,0-0.2-0.2v-0.4
		c0-0.1,0.1-0.2,0.2-0.2h1.1c0.2,0,0.3-0.1,0.4-0.4c0-0.7,0-1.3,0-2V78.6z M192.2,71.9c0-0.6,0.5-1.2,1.4-1.2c0.8,0,1.2,0.7,1.2,1.2
		c0,0.6-0.4,1.3-1.3,1.3C192.9,73.1,192.2,72.6,192.2,71.9z"/>
	<path class="st1" d="M207.7,82.7L207.7,82.7l1.9-4.9c0.3-0.8,0.1-1.2-0.3-1.2h-0.3c-0.1,0-0.1-0.1-0.1-0.2v-0.5
		c0-0.1,0.1-0.2,0.2-0.2c0.1,0,0.8,0.1,1.7,0.1c0.9,0,1.3-0.1,1.6-0.1c0.1,0,0.2,0.1,0.2,0.2v0.5c0,0.1,0,0.2-0.2,0.2h-0.5
		c-0.3,0-0.6,0.2-0.7,0.4c-0.3,0.4-3.1,7.4-3.4,8.1c-0.1,0.2-0.2,0.3-0.4,0.3c-0.2,0-0.3-0.2-0.4-0.4l-2.2-6.3h-0.1l-2.7,6.4
		c-0.1,0.3-0.3,0.4-0.5,0.4c-0.2,0-0.3-0.2-0.4-0.4l-2.9-7.8c-0.2-0.4-0.4-0.6-0.9-0.6h-0.5c-0.1,0-0.1-0.1-0.1-0.2V76
		c0-0.1,0-0.2,0.1-0.2c0.3,0,0.7,0.1,2,0.1c1,0,1.5-0.1,1.8-0.1c0.1,0,0.2,0,0.2,0.2v0.4c0,0.1,0,0.2-0.2,0.2h-0.2
		c-0.2,0-0.4,0.2-0.3,0.6l1.7,5.9h0.1l2.2-5.4c0-0.4-0.1-0.5-0.2-0.7c-0.1-0.2-0.3-0.2-0.6-0.2H203c-0.1,0-0.2,0-0.2-0.1v-0.5
		c0-0.1,0.1-0.2,0.2-0.2c0.2,0,0.9,0.1,2,0.1c1,0,1.5-0.1,1.7-0.1c0.2,0,0.2,0,0.2,0.2v0.5c0,0.1,0,0.2-0.2,0.2h-0.5
		c-0.2,0-0.4,0.3-0.3,0.6L207.7,82.7z"/>
	<path class="st1" d="M219.4,82.4c0,1.3,0.3,1.6,0.6,1.6c0.4,0,0.7-0.2,0.8-0.3c0.1-0.1,0.1-0.1,0.2-0.1l0.2,0.2
		c0.1,0.1,0.1,0.2,0,0.4c-0.2,0.3-0.6,1.1-1.7,1.1c-0.8,0-1.4-0.6-1.6-1.5h0c-0.5,0.5-1.2,1-2.2,1.3c-0.4,0.1-0.8,0.1-1.3,0.1
		c-0.5,0-1.3-0.4-1.3-1.8c0-1,0.5-1.9,2.2-2.7c1-0.4,2.1-1,2.5-1.3v-1.4c0-0.4-0.1-1-0.3-1.2c-0.2-0.3-0.7-0.5-1.3-0.5
		c-0.4,0-1.1,0.2-1.4,0.5c-0.3,0.3-0.1,0.6-0.1,1c0,0.8-0.3,1.2-1.2,1.2c-0.4,0-0.5-0.2-0.5-0.7c0-0.7,0.6-1.5,1.5-2.1
		c0.9-0.6,1.7-0.8,2.7-0.8c1,0,1.5,0.3,1.8,0.6c0.5,0.5,0.5,1,0.5,1.5v3.4V82.4z M217.8,80.2c-0.8,0.6-2.9,1-2.9,2.9
		c0,0.8,0.5,1.2,1.2,1.2c0.6,0,1.8-0.8,1.8-1.4V80.2z"/>
	<path class="st1" d="M231.3,83.9c0,0.3,0.2,0.5,0.5,0.5h0.7c0.2,0,0.2,0.1,0.2,0.2v0.4c0,0.2,0,0.2-0.2,0.2c-0.2,0-0.8-0.1-2.1-0.1
		c-1.1,0-1.8,0.1-2,0.1c-0.1,0-0.2-0.1-0.2-0.2v-0.4c0-0.2,0.1-0.2,0.3-0.2h0.6c0.2,0,0.4-0.1,0.4-0.5c0-0.6,0-1.3,0-1.9v-2.9
		c0-0.9,0-1.5-0.6-2c-0.5-0.4-1-0.4-1.6-0.4c-0.4,0-1.1,0.2-1.8,0.9c-0.4,0.5-0.5,1.1-0.5,1.5v4.6c0,0.6,0.1,0.7,0.5,0.7h0.5
		c0.2,0,0.2,0.1,0.2,0.2v0.4c0,0.1,0,0.2-0.1,0.2c-0.2,0-0.8-0.1-1.9-0.1c-1.1,0-1.8,0.1-2,0.1c-0.1,0-0.2-0.1-0.2-0.2v-0.4
		c0-0.1,0-0.2,0.2-0.2h0.6c0.3,0,0.4-0.1,0.4-0.4v-5.1c0-0.7-0.4-1-0.9-1.3l-0.2-0.1c-0.2-0.1-0.2-0.1-0.2-0.2V77
		c0-0.1,0.1-0.2,0.2-0.2l1.9-1.1c0.2-0.1,0.3-0.2,0.4-0.2c0.1,0,0.2,0.1,0.2,0.3l0.2,1.3h0c0.6-0.8,1.9-1.6,3-1.6
		c0.7,0,1.3,0.1,1.9,0.5c0.7,0.4,1.2,1.5,1.2,2.1V83.9z"/>
	<path class="st1" d="M243.7,77.1c0-0.3,0-1.3,0-3.1c0-0.7-0.1-1.2-0.5-1.2c-0.2,0-0.5,0.1-0.9,0.2l-1.5,0.5c-0.1,0-0.2,0-0.2-0.1
		l-0.2-0.4c0-0.1,0-0.2,0.1-0.3l4.6-2.6c0.1-0.1,0.2-0.1,0.3-0.1c0.1,0,0.2,0.1,0.2,0.3c0,0.2-0.1,3.7-0.1,6.5v0.9
		c0,0.3,0,4.9,0,5.2c0,1.1,0.1,1.3,1.5,1.3h0.8c0.2,0,0.2,0.1,0.2,0.2v0.5c0,0.1,0,0.2-0.2,0.2c-0.2,0-3.2-0.1-3.4-0.1
		c-0.2,0-3.3,0.1-3.4,0.1c-0.1,0-0.2,0-0.2-0.2v-0.6c0-0.1,0.1-0.1,0.3-0.1h1c1.4,0,1.5-0.1,1.5-1.2c0-0.3,0-4.7,0-5.1V77.1z"/>
	<path class="st1" d="M258.6,71.6c1,1.1,1.2,2.9,1.2,3.5c0,3-1,6-3.6,8.3c-1.1,1-2,1.5-3.2,1.9c-0.2,0.1-0.5,0.2-0.7,0.2
		c-0.2,0-0.3-0.1-0.3-0.3c0-0.2,0.1-0.3,0.2-0.3c1.9-0.8,4.9-3.2,5.3-6.8l0,0c-0.6,0.6-1.4,1.1-2.7,1.1c-3,0-4.1-2.3-4.1-4.4
		c0-0.8,0.8-2.7,1.6-3.4c0.9-0.7,1.9-1.1,2.8-1.1C256.7,70,257.6,70.5,258.6,71.6z M252.5,74.5c0,2.1,1.2,3.6,2.7,3.6
		c1.3,0,1.9-0.7,2.2-1.2c0.3-0.6,0.3-1.3,0.3-2.2c0-1.9-0.6-3.9-2.6-3.9C253.9,70.7,252.5,72,252.5,74.5z"/>
	<path class="st1" d="M262.2,82.2c0-1.9,1-3,2.9-4.2c-1.7-0.9-3-2.1-3-3.8c0-1.9,1.6-4.2,4.7-4.2c2,0,3.7,1.4,3.7,2.9
		c0,2.1-0.7,3.1-3,4.7c1.8,0.8,3.1,2,3.1,4c0,1.7-1.7,3.9-4.3,3.9C263.2,85.4,262.2,83.6,262.2,82.2z M269,81.9
		c0-1.8-1.5-2.6-3.2-3.5c-1.4,0.8-2.2,2.1-2.2,3.5c0,1.9,1.5,2.7,2.8,2.7C267.9,84.6,269,83.8,269,81.9z M263.7,73.7
		c0,1.6,1,2.2,3,3.4c1.1-0.7,2.2-2,2.3-3.5c0.1-1.6-1.1-2.7-2.6-2.7C264.8,70.9,263.7,72.2,263.7,73.7z"/>
	<path class="st1" d="M272.4,78.4c0-5,2.1-8.4,4.9-8.4c3.2,0,4.7,4.2,4.7,7.6c0,5-1.9,7.8-4.7,7.8C273.8,85.4,272.4,81.1,272.4,78.4
		z M279.5,83c0.5-1.1,0.7-2.7,0.7-5.9c0-3.2-1.1-6.3-3-6.3c-0.9,0-1.5,0.3-2,1.3c-0.8,1.5-0.9,4.1-0.9,5.9c0,2.1,0.3,3.6,0.8,4.7
		c0.7,1.4,1.5,1.9,2.3,1.9C278.1,84.6,278.9,84.3,279.5,83z"/>
</g>
</svg>
